<svg xmlns="http://www.w3.org/2000/svg" version="1.1" xmlns:xlink="http://www.w3.org/1999/xlink" xmlns:svgjs="http://svgjs.dev/svgjs" width="1500" height="935" viewBox="0 0 1500 935"><g transform="matrix(1,0,0,1,-0.9090909090909918,0.3785425101214628)"><svg viewBox="0 0 396 247" data-background-color="#ffffff" preserveAspectRatio="xMidYMid meet" height="935" width="1500" xmlns="http://www.w3.org/2000/svg" xmlns:xlink="http://www.w3.org/1999/xlink"><g id="tight-bounds" transform="matrix(1,0,0,1,0.2400000000000091,-0.09999999999999432)"><svg viewBox="0 0 395.52 247.2" height="247.2" width="395.52"><g><svg></svg></g><g><svg viewBox="0 0 395.52 247.2" height="247.2" width="395.52"><mask id="2fdff498-f764-4a6a-82c7-7f90f52d9815"><rect width="395.52" height="247.2" fill="white"></rect><g transform="matrix(1,0,0,1,0,108.65118141770124)" id="clone"><svg viewBox="0 0 395.52 29.897637164597516" height="29.897637164597516" width="395.52"><g><svg viewBox="0 0 395.52 29.897637164597516" height="29.897637164597516" width="395.52"><g><svg viewBox="0 0 395.52 29.897637164597516" height="29.897637164597516" width="395.52"><g><svg viewBox="0 0 395.52 29.897637164597516" height="29.897637164597516" width="395.52"><g id="SvgjsG1064"><svg viewBox="0 0 395.52 29.897637164597516" height="29.897637164597516" width="395.52" id="SvgjsSvg1063"><g><svg viewBox="0 0 395.52 29.897637164597516" height="29.897637164597516" width="395.52"><g transform="matrix(1,0,0,1,0,0)"><svg width="395.52" viewBox="-11.3 -35 500.37 38.75" height="29.897637164597516" data-palette-color="#000000"><path d="M12.9-19.4L12.9-19.4-8.3-21.65 13.25-21.65Q13-20.65 12.9-19.4ZM-6.9-26.45L14.6-26.45 13.85-24.25-6.9-26.45ZM-7.85-16.85L12.9-16.85Q13-15.5 13.3-14.6L13.3-14.6-7.85-16.85ZM19.9-9.8L19.9-9.8-6.55-12.05 15-12.05Q16.65-10.45 19.9-9.8ZM-3.15-31.25L18.35-31.25Q17.2-30.5 16.15-29.2L16.15-29.2-3.15-31.25ZM10.55-5.05L-7.4-7.25 11.3-7.25 10.55-5.05ZM8.95-0.2L-8.25-2.4 9.7-2.4 8.95-0.2ZM10.65-0.55L13.45-8.8Q17.65-7.65 21.13-7.65 24.6-7.65 26.8-7.95L26.8-7.95 27.2-10.45 23.05-10.85Q18.3-11.3 16.32-13 14.35-14.7 14.35-17.8L14.35-17.8Q14.35-19.15 14.65-20.8L14.65-20.8Q15.8-27.2 18.85-29.6 21.9-32 28.23-32 34.55-32 39.4-30.75L39.4-30.75 36.8-22.75Q32.45-23.5 29.83-23.5 27.2-23.5 25.3-23.25L25.3-23.25 24.9-20.8 28.25-20.45Q33.35-19.9 35.5-18.03 37.65-16.15 37.65-13L37.65-13Q37.65-9.8 36.3-6.4L36.3-6.4Q35.55-4.65 34.73-3.48 33.9-2.3 32.63-1.48 31.35-0.65 30.3-0.23 29.25 0.2 27.6 0.4L27.6 0.4Q25.3 0.75 21.9 0.75L21.9 0.75Q15.7 0.75 10.65-0.55L10.65-0.55ZM50.55-12.05L50.15-9.8 28.95-12.05 50.55-12.05ZM51.4-16.85L51-14.6 29.8-16.85 51.4-16.85ZM52.25-21.65L51.85-19.4 30.65-21.65 52.25-21.65ZM53.05-26.45L52.7-24.2 31.5-26.45 53.05-26.45ZM28.8-7.25L49.95-7.25 49.95-6.25Q49.95-5.4 50-5L50-5 28.8-7.25ZM51.9-0.15L51.9-0.15 30.7-2.4 50.45-2.4Q51-1 51.9-0.15ZM59.65-7L62.15-7Q63.5-7 64.02-7.33 64.55-7.65 64.75-8.9L64.75-8.9 67.9-26.45 76.3-26.45 73.7-11.55Q72.5-4.55 69.82-1.98 67.15 0.6 60.7 0.6L60.7 0.6Q55.55 0.6 53.5-0.93 51.45-2.45 51.45-6.25L51.45-6.25Q51.45-8.35 52-11.55L52-11.55 54.65-26.45 63.05-26.45 59.65-7ZM91.05-26.45L102.3-26.45Q107.75-26.45 110.09-24.5 112.45-22.55 112.45-18.25L112.45-18.25Q112.45-16.2 111.9-13.2L111.9-13.2Q110.65-6.1 107.57-3.05 104.5 0 97.65 0L97.65 0 86.45 0 91.05-26.45ZM101.09-19.15L101.09-19.15 98.2-19.15 96.09-7.15 99-7.15Q100.45-7.15 101.22-7.53 102-7.9 102.2-9.05L102.2-9.05 103.65-17.3Q103.7-17.5 103.7-18.1L103.7-18.1Q103.7-19.15 101.09-19.15ZM85.2-2.4L84.8-0.15 63.6-2.4 85.2-2.4ZM86.9-12.05L86.5-9.8 65.3-12.05 86.9-12.05ZM87.75-16.85L87.34-14.6 66.15-16.85 87.75-16.85ZM88.59-21.65L88.2-19.4 67-21.65 88.59-21.65ZM89.4-26.45L89.05-24.2 67.84-26.45 89.4-26.45ZM86.05-7.25L85.65-5 64.45-7.25 86.05-7.25ZM150.04 0L141.29 0 141.09-4.05 134.79-4.05 133.24 0 124.59 0 135.69-26.45 148.09-26.45 150.04 0ZM137.44-11.2L141.09-11.2 141.09-18.8 140.39-18.8 137.44-11.2ZM123.94-2.4L122.99-0.2 102.49-2.4 123.94-2.4ZM125.99-7.25L125.04-5.05 104.54-7.25 125.99-7.25ZM127.99-12.05L127.09-9.85 106.59-12.05 127.99-12.05ZM130.04-16.85L129.09-14.65 108.64-16.85 130.04-16.85ZM132.04-21.65L131.14-19.45 110.69-21.65 132.04-21.65ZM134.04-26.45L133.14-24.3 112.74-26.45 134.04-26.45ZM185.39 0L178.59 0 173.44-9.9 173.24-9.9 171.49 0 163.09 0 167.69-26.45 174.49-26.45 179.69-16.6 179.99-16.6 181.69-26.45 190.04-26.45 185.39 0ZM161.84-2.4L161.44-0.15 140.24-2.4 161.84-2.4ZM163.54-12.05L163.14-9.8 141.94-12.05 163.54-12.05ZM164.39-16.85L163.99-14.6 142.79-16.85 164.39-16.85ZM165.24-21.65L164.84-19.4 143.64-21.65 165.24-21.65ZM166.04-26.45L165.69-24.2 144.49-26.45 166.04-26.45ZM162.69-7.25L162.29-5 141.09-7.25 162.69-7.25ZM220.14-15.55L219.29-10.75 211.84-10.75 211.24-7.35 220.49-7.35 219.19 0 201.54 0 206.14-26.45 223.74-26.45 221.39-18.95 213.24-18.95 212.64-15.55 220.14-15.55ZM200.29-2.4L199.89-0.15 178.69-2.4 200.29-2.4ZM201.99-12.05L201.59-9.8 180.39-12.05 201.99-12.05ZM202.84-16.85L202.44-14.6 181.24-16.85 202.84-16.85ZM203.69-21.65L203.29-19.4 182.09-21.65 203.69-21.65ZM204.49-26.45L204.14-24.2 182.94-26.45 204.49-26.45ZM201.14-7.25L200.74-5 179.54-7.25 201.14-7.25ZM233.14-0.15L212.24-2.4 233.84-2.4 233.14-0.15ZM216.09-21.65L237.64-21.65Q237.34-20.85 236.99-19.4L236.99-19.4 216.09-21.65ZM236.39-15L236.39-15 236.39-14.6 215.19-16.85 236.49-16.85Q236.39-15.65 236.39-15ZM235.44-7.25L234.74-5.05 213.89-7.25 235.44-7.25ZM219.54-26.45L241.09-26.45Q239.74-25.45 239.04-24.35L239.04-24.35 219.54-26.45ZM217.14-12.05L236.84-12.05Q237.29-10.75 238.29-9.8L238.29-9.8 217.14-12.05ZM259.19-25.9L256.79-18.6Q253.39-19.4 250.99-19.4 248.59-19.4 247.44-19.25L247.44-19.25 247.19-17.8 249.69-17.5Q257.74-16.45 257.74-10.85L257.74-10.85Q257.74-10.2 257.44-8.43 257.14-6.65 256.44-5 255.74-3.35 254.66-2.33 253.59-1.3 252.56-0.68 251.54-0.05 249.94 0.2L249.94 0.2Q247.44 0.6 243.26 0.6 239.09 0.6 234.84-0.55L234.84-0.55 237.29-7.95Q241.19-6.85 244.11-6.85 247.04-6.85 248.24-7L248.24-7 248.49-8.6 245.34-8.95Q241.29-9.4 239.59-10.85 237.89-12.3 237.89-15L237.89-15Q237.89-16 238.14-17.5L238.14-17.5Q239.14-22.85 241.74-24.9 244.34-26.95 249.66-26.95 254.99-26.95 259.19-25.9L259.19-25.9ZM288.83-15.55L287.98-10.75 280.53-10.75 279.93-7.35 289.18-7.35 287.88 0 270.23 0 274.83-26.45 292.43-26.45 290.08-18.95 281.93-18.95 281.33-15.55 288.83-15.55ZM268.98-2.4L268.58-0.15 247.38-2.4 268.98-2.4ZM270.68-12.05L270.28-9.8 249.08-12.05 270.68-12.05ZM271.53-16.85L271.13-14.6 249.93-16.85 271.53-16.85ZM272.38-21.65L271.98-19.4 250.78-21.65 272.38-21.65ZM273.18-26.45L272.83-24.2 251.63-26.45 273.18-26.45ZM269.83-7.25L269.43-5 248.23-7.25 269.83-7.25ZM330.48 0L325.38-11.1Q325.18-11.45 325.18-12.08 325.18-12.7 325.28-13.5L325.28-13.5 324.88-13.5 322.53 0 313.03 0 318.53-31.25 327.48-31.25 332.58-20.15Q332.73-19.8 332.73-19.18 332.73-18.55 332.63-17.75L332.63-17.75 333.03-17.75 335.43-31.25 344.93-31.25 339.43 0 330.48 0ZM311.93-2.4L311.53-0.15 290.33-2.4 311.93-2.4ZM313.63-12.05L313.23-9.8 292.03-12.05 313.63-12.05ZM314.48-16.85L314.08-14.6 292.88-16.85 314.48-16.85ZM315.33-21.65L314.93-19.4 293.73-21.65 315.33-21.65ZM316.13-26.45L315.78-24.2 294.58-26.45 316.13-26.45ZM312.78-7.25L312.38-5 291.18-7.25 312.78-7.25ZM316.98-31.25L316.58-29 295.43-31.25 316.98-31.25ZM356.03-12.05L355.63-9.8 334.43-12.05 356.03-12.05ZM356.88-16.85L356.48-14.6 335.28-16.85 356.88-16.85ZM357.73-21.65L357.33-19.4 336.13-21.65 357.73-21.65ZM358.53-26.45L358.18-24.2 336.98-26.45 358.53-26.45ZM334.28-7.25L355.43-7.25 355.43-6.25Q355.43-5.4 355.48-5L355.48-5 334.28-7.25ZM357.38-0.15L357.38-0.15 336.18-2.4 355.93-2.4Q356.48-1 357.38-0.15ZM365.13-7L367.63-7Q368.98-7 369.5-7.33 370.03-7.65 370.23-8.9L370.23-8.9 373.38-26.45 381.78-26.45 379.18-11.55Q377.98-4.55 375.3-1.98 372.63 0.6 366.18 0.6L366.18 0.6Q361.03 0.6 358.98-0.93 356.93-2.45 356.93-6.25L356.93-6.25Q356.93-8.35 357.48-11.55L357.48-11.55 360.13-26.45 368.53-26.45 365.13-7ZM396.52-26.45L409.22-26.45Q416.52-26.45 416.52-19.85L416.52-19.85Q416.52-16.85 415.32-13.63 414.12-10.4 411.27-8.8L411.27-8.8 414.12 0 404.77 0 402.87-7.7 401.67-7.7 400.32 0 391.92 0 396.52-26.45ZM407.07-16.05L407.37-17.8Q407.37-17.85 407.42-18.3L407.42-18.3Q407.42-19.15 404.77-19.15L404.77-19.15 403.67-19.15 402.87-14.55 404.47-14.55Q406.77-14.55 407.07-16.05L407.07-16.05ZM390.67-2.4L390.27-0.15 369.07-2.4 390.67-2.4ZM392.37-12.05L391.97-9.8 370.77-12.05 392.37-12.05ZM393.22-16.85L392.82-14.6 371.62-16.85 393.22-16.85ZM394.07-21.65L393.67-19.4 372.47-21.65 394.07-21.65ZM394.87-26.45L394.52-24.2 373.32-26.45 394.87-26.45ZM391.52-7.25L391.12-5 369.92-7.25 391.52-7.25ZM426.77-0.15L405.87-2.4 427.47-2.4 426.77-0.15ZM409.72-21.65L431.27-21.65Q430.97-20.85 430.62-19.4L430.62-19.4 409.72-21.65ZM430.02-15L430.02-15 430.02-14.6 408.82-16.85 430.12-16.85Q430.02-15.65 430.02-15ZM429.07-7.25L428.37-5.05 407.52-7.25 429.07-7.25ZM413.17-26.45L434.72-26.45Q433.37-25.45 432.67-24.35L432.67-24.35 413.17-26.45ZM410.77-12.05L430.47-12.05Q430.92-10.75 431.92-9.8L431.92-9.8 410.77-12.05ZM452.82-25.9L450.42-18.6Q447.02-19.4 444.62-19.4 442.22-19.4 441.07-19.25L441.07-19.25 440.82-17.8 443.32-17.5Q451.37-16.45 451.37-10.85L451.37-10.85Q451.37-10.2 451.07-8.43 450.77-6.65 450.07-5 449.37-3.35 448.3-2.33 447.22-1.3 446.2-0.68 445.17-0.05 443.57 0.2L443.57 0.2Q441.07 0.6 436.9 0.6 432.72 0.6 428.47-0.55L428.47-0.55 430.92-7.95Q434.82-6.85 437.75-6.85 440.67-6.85 441.87-7L441.87-7 442.12-8.6 438.97-8.95Q434.92-9.4 433.22-10.85 431.52-12.3 431.52-15L431.52-15Q431.52-16 431.77-17.5L431.77-17.5Q432.77-22.85 435.37-24.9 437.97-26.95 443.3-26.95 448.62-26.95 452.82-25.9L452.82-25.9ZM482.47-15.55L481.62-10.75 474.17-10.75 473.57-7.35 482.82-7.35 481.52 0 463.87 0 468.47-26.45 486.07-26.45 483.72-18.95 475.57-18.95 474.97-15.55 482.47-15.55ZM462.62-2.4L462.22-0.15 441.02-2.4 462.62-2.4ZM464.32-12.05L463.92-9.8 442.72-12.05 464.32-12.05ZM465.17-16.85L464.77-14.6 443.57-16.85 465.17-16.85ZM466.02-21.65L465.62-19.4 444.42-21.65 466.02-21.65ZM466.82-26.45L466.47-24.2 445.27-26.45 466.82-26.45ZM463.47-7.25L463.07-5 441.87-7.25 463.47-7.25Z" opacity="1" transform="matrix(1,0,0,1,0,0)" fill="black" class="wordmark-text-0" id="SvgjsPath1062" stroke-width="5" stroke="black" stroke-linejoin="round"></path></svg></g></svg></g></svg></g></svg></g></svg></g></svg></g></svg></g></mask><g mask="url(#2fdff498-f764-4a6a-82c7-7f90f52d9815)"><g><path d="M93.388 107.149v0l-92.388-9.805h93.913c-0.726 2.905-1.235 6.174-1.525 9.805zM7.101 76.426h93.695l-3.268 9.587zM2.961 118.262h90.427c0.291 3.922 0.872 7.191 1.743 9.805v0zM123.893 148.985v0l-115.267-9.805h93.913c4.794 4.648 11.912 7.917 21.354 9.805zM23.443 55.508h93.696c-3.341 2.179-6.537 5.157-9.588 8.933v0zM83.147 169.685l-78.225-9.587h81.493zM76.174 190.821l-74.956-9.588h78.225zM83.583 189.296l12.202-35.953c12.202 3.341 23.358 5.012 33.469 5.011 10.081 0 18.318-0.436 24.709-1.307v0l1.743-10.895-18.085-1.743c-13.8-1.307-23.576-4.431-29.329-9.369-5.723-4.939-8.585-11.912-8.585-20.918v0c0-3.922 0.436-8.28 1.307-13.074v0c3.341-18.594 9.442-31.377 18.303-38.35 8.861-6.973 22.487-10.459 40.878-10.459 18.361 0 34.587 1.816 48.678 5.447v0l-11.331 34.864c-12.638-2.179-22.763-3.268-30.375-3.269-7.641 0-14.221 0.363-19.741 1.09v0l-1.743 10.677 14.599 1.525c14.817 1.598 25.349 5.113 31.595 10.546 6.246 5.462 9.37 12.769 9.369 21.921v0c0 9.297-1.961 18.884-5.883 28.762v0c-2.179 5.084-4.46 9.326-6.842 12.725-2.411 3.428-5.462 6.334-9.151 8.716-3.719 2.411-7.103 4.227-10.154 5.447-3.051 1.249-6.973 2.164-11.767 2.746v0c-6.682 1.017-14.962 1.525-24.84 1.525v0c-18.013 0-34.355-1.888-49.026-5.665zM331.548 191.692l-22.225-48.372c-0.581-1.017-0.872-2.44-0.872-4.271 0-1.801 0.145-3.864 0.436-6.188v0h-1.743l-10.241 58.831h-41.401l23.969-136.184h39.003l22.226 48.372c0.436 1.017 0.654 2.426 0.653 4.228 0 1.83-0.145 3.908-0.435 6.231v0h1.743l10.459-58.831h41.4l-23.969 136.184zM250.709 181.233l-1.743 9.806-92.388-9.806zM258.117 139.18l-1.743 9.805-92.388-9.805zM261.821 118.262l-1.743 9.805-92.388-9.805zM265.526 97.344l-1.744 9.805-92.387-9.805zM269.012 76.426l-1.525 9.805-92.388-9.805zM254.413 160.098l-1.743 9.805-92.388-9.805zM272.716 55.508l-1.743 9.805-92.17-9.805z" fill="#0074d9" fill-rule="nonzero" stroke="none" stroke-width="1" stroke-linecap="butt" stroke-linejoin="miter" stroke-miterlimit="10" stroke-dasharray="" stroke-dashoffset="0" font-family="none" font-weight="none" font-size="none" text-anchor="none" style="mix-blend-mode: normal" data-fill-palette-color="tertiary"></path></g></g><g transform="matrix(1,0,0,1,0,108.65118141770124)"><svg viewBox="0 0 395.52 29.897637164597516" height="29.897637164597516" width="395.52"><g><svg viewBox="0 0 395.52 29.897637164597516" height="29.897637164597516" width="395.52"><g><svg viewBox="0 0 395.52 29.897637164597516" height="29.897637164597516" width="395.52"><g><svg viewBox="0 0 395.52 29.897637164597516" height="29.897637164597516" width="395.52"><g id="textblocktransform"><svg viewBox="0 0 395.52 29.897637164597516" height="29.897637164597516" width="395.52" id="textblock"><g><svg viewBox="0 0 395.52 29.897637164597516" height="29.897637164597516" width="395.52"><g transform="matrix(1,0,0,1,0,0)"><svg width="395.52" viewBox="-11.3 -35 500.37 38.75" height="29.897637164597516" data-palette-color="#000000"><path d="M12.9-19.4L12.9-19.4-8.3-21.65 13.25-21.65Q13-20.65 12.9-19.4ZM-6.9-26.45L14.6-26.45 13.85-24.25-6.9-26.45ZM-7.85-16.85L12.9-16.85Q13-15.5 13.3-14.6L13.3-14.6-7.85-16.85ZM19.9-9.8L19.9-9.8-6.55-12.05 15-12.05Q16.65-10.45 19.9-9.8ZM-3.15-31.25L18.35-31.25Q17.2-30.5 16.15-29.2L16.15-29.2-3.15-31.25ZM10.55-5.05L-7.4-7.25 11.3-7.25 10.55-5.05ZM8.95-0.2L-8.25-2.4 9.7-2.4 8.95-0.2ZM10.65-0.55L13.45-8.8Q17.65-7.65 21.13-7.65 24.6-7.65 26.8-7.95L26.8-7.95 27.2-10.45 23.05-10.85Q18.3-11.3 16.32-13 14.35-14.7 14.35-17.8L14.35-17.8Q14.35-19.15 14.65-20.8L14.65-20.8Q15.8-27.2 18.85-29.6 21.9-32 28.23-32 34.55-32 39.4-30.75L39.4-30.75 36.8-22.75Q32.45-23.5 29.83-23.5 27.2-23.5 25.3-23.25L25.3-23.25 24.9-20.8 28.25-20.45Q33.35-19.9 35.5-18.03 37.65-16.15 37.65-13L37.65-13Q37.65-9.8 36.3-6.4L36.3-6.4Q35.55-4.65 34.73-3.48 33.9-2.3 32.63-1.48 31.35-0.65 30.3-0.23 29.25 0.2 27.6 0.4L27.6 0.4Q25.3 0.75 21.9 0.75L21.9 0.75Q15.7 0.75 10.65-0.55L10.65-0.55ZM50.55-12.05L50.15-9.8 28.95-12.05 50.55-12.05ZM51.4-16.85L51-14.6 29.8-16.85 51.4-16.85ZM52.25-21.65L51.85-19.4 30.65-21.65 52.25-21.65ZM53.05-26.45L52.7-24.2 31.5-26.45 53.05-26.45ZM28.8-7.25L49.95-7.25 49.95-6.25Q49.95-5.4 50-5L50-5 28.8-7.25ZM51.9-0.15L51.9-0.15 30.7-2.4 50.45-2.4Q51-1 51.9-0.15ZM59.65-7L62.15-7Q63.5-7 64.02-7.33 64.55-7.65 64.75-8.9L64.75-8.9 67.9-26.45 76.3-26.45 73.7-11.55Q72.5-4.55 69.82-1.98 67.15 0.6 60.7 0.6L60.7 0.6Q55.55 0.6 53.5-0.93 51.45-2.45 51.45-6.25L51.45-6.25Q51.45-8.35 52-11.55L52-11.55 54.65-26.45 63.05-26.45 59.65-7ZM91.05-26.45L102.3-26.45Q107.75-26.45 110.09-24.5 112.45-22.55 112.45-18.25L112.45-18.25Q112.45-16.2 111.9-13.2L111.9-13.2Q110.65-6.1 107.57-3.05 104.5 0 97.65 0L97.65 0 86.45 0 91.05-26.45ZM101.09-19.15L101.09-19.15 98.2-19.15 96.09-7.15 99-7.15Q100.45-7.15 101.22-7.53 102-7.9 102.2-9.05L102.2-9.05 103.65-17.3Q103.7-17.5 103.7-18.1L103.7-18.1Q103.7-19.15 101.09-19.15ZM85.2-2.4L84.8-0.15 63.6-2.4 85.2-2.4ZM86.9-12.05L86.5-9.8 65.3-12.05 86.9-12.05ZM87.75-16.85L87.34-14.6 66.15-16.85 87.75-16.85ZM88.59-21.65L88.2-19.4 67-21.65 88.59-21.65ZM89.4-26.45L89.05-24.2 67.84-26.45 89.4-26.45ZM86.05-7.25L85.65-5 64.45-7.25 86.05-7.25ZM150.04 0L141.29 0 141.09-4.05 134.79-4.05 133.24 0 124.59 0 135.69-26.45 148.09-26.45 150.04 0ZM137.44-11.2L141.09-11.2 141.09-18.8 140.39-18.8 137.44-11.2ZM123.94-2.4L122.99-0.2 102.49-2.4 123.94-2.4ZM125.99-7.25L125.04-5.05 104.54-7.25 125.99-7.25ZM127.99-12.05L127.09-9.85 106.59-12.05 127.99-12.05ZM130.04-16.85L129.09-14.65 108.64-16.85 130.04-16.85ZM132.04-21.65L131.14-19.45 110.69-21.65 132.04-21.65ZM134.04-26.45L133.14-24.3 112.74-26.45 134.04-26.45ZM185.39 0L178.59 0 173.44-9.9 173.24-9.9 171.49 0 163.09 0 167.69-26.45 174.49-26.45 179.69-16.6 179.99-16.6 181.69-26.45 190.04-26.45 185.39 0ZM161.84-2.4L161.44-0.15 140.24-2.4 161.84-2.4ZM163.54-12.05L163.14-9.8 141.94-12.05 163.54-12.05ZM164.39-16.85L163.99-14.6 142.79-16.85 164.39-16.85ZM165.24-21.65L164.84-19.4 143.64-21.65 165.24-21.65ZM166.04-26.45L165.69-24.2 144.49-26.45 166.04-26.45ZM162.69-7.25L162.29-5 141.09-7.25 162.69-7.25ZM220.14-15.55L219.29-10.75 211.84-10.75 211.24-7.35 220.49-7.35 219.19 0 201.54 0 206.14-26.45 223.74-26.45 221.39-18.95 213.24-18.95 212.64-15.55 220.14-15.55ZM200.29-2.4L199.89-0.15 178.69-2.4 200.29-2.4ZM201.99-12.05L201.59-9.8 180.39-12.05 201.99-12.05ZM202.84-16.85L202.44-14.6 181.24-16.85 202.84-16.85ZM203.69-21.65L203.29-19.4 182.09-21.65 203.69-21.65ZM204.49-26.45L204.14-24.2 182.94-26.45 204.49-26.45ZM201.14-7.25L200.74-5 179.54-7.25 201.14-7.25ZM233.14-0.15L212.24-2.4 233.84-2.4 233.14-0.15ZM216.09-21.65L237.64-21.65Q237.34-20.85 236.99-19.4L236.99-19.4 216.09-21.65ZM236.39-15L236.39-15 236.39-14.6 215.19-16.85 236.49-16.85Q236.39-15.65 236.39-15ZM235.44-7.25L234.74-5.05 213.89-7.25 235.44-7.25ZM219.54-26.45L241.09-26.45Q239.74-25.45 239.04-24.35L239.04-24.35 219.54-26.45ZM217.14-12.05L236.84-12.05Q237.29-10.75 238.29-9.8L238.29-9.8 217.14-12.05ZM259.19-25.9L256.79-18.6Q253.39-19.4 250.99-19.4 248.59-19.4 247.44-19.25L247.44-19.25 247.19-17.8 249.69-17.5Q257.74-16.45 257.74-10.85L257.74-10.85Q257.74-10.2 257.44-8.43 257.14-6.65 256.44-5 255.74-3.35 254.66-2.33 253.59-1.3 252.56-0.68 251.54-0.05 249.94 0.2L249.94 0.2Q247.44 0.6 243.26 0.6 239.09 0.6 234.84-0.55L234.84-0.55 237.29-7.95Q241.19-6.85 244.11-6.85 247.04-6.85 248.24-7L248.24-7 248.49-8.6 245.34-8.95Q241.29-9.4 239.59-10.85 237.89-12.3 237.89-15L237.89-15Q237.89-16 238.14-17.5L238.14-17.5Q239.14-22.85 241.74-24.9 244.34-26.95 249.66-26.95 254.99-26.95 259.19-25.9L259.19-25.9ZM288.83-15.55L287.98-10.75 280.53-10.75 279.93-7.35 289.18-7.35 287.88 0 270.23 0 274.83-26.45 292.43-26.45 290.08-18.95 281.93-18.95 281.33-15.55 288.83-15.55ZM268.98-2.4L268.58-0.15 247.38-2.4 268.98-2.4ZM270.68-12.05L270.28-9.8 249.08-12.05 270.68-12.05ZM271.53-16.85L271.13-14.6 249.93-16.85 271.53-16.85ZM272.38-21.65L271.98-19.4 250.78-21.65 272.38-21.65ZM273.18-26.45L272.83-24.2 251.63-26.45 273.18-26.45ZM269.83-7.25L269.43-5 248.23-7.25 269.83-7.25ZM330.48 0L325.38-11.1Q325.18-11.45 325.18-12.08 325.18-12.7 325.28-13.5L325.28-13.5 324.88-13.5 322.53 0 313.03 0 318.53-31.25 327.48-31.25 332.58-20.15Q332.73-19.8 332.73-19.18 332.73-18.55 332.63-17.75L332.63-17.75 333.03-17.75 335.43-31.25 344.93-31.25 339.43 0 330.48 0ZM311.93-2.4L311.53-0.15 290.33-2.4 311.93-2.4ZM313.63-12.05L313.23-9.8 292.03-12.05 313.63-12.05ZM314.48-16.85L314.08-14.6 292.88-16.85 314.48-16.85ZM315.33-21.65L314.93-19.4 293.73-21.65 315.33-21.65ZM316.13-26.45L315.78-24.2 294.58-26.45 316.13-26.45ZM312.78-7.25L312.38-5 291.18-7.25 312.78-7.25ZM316.98-31.25L316.58-29 295.43-31.25 316.98-31.25ZM356.03-12.05L355.63-9.8 334.43-12.05 356.03-12.05ZM356.88-16.85L356.48-14.6 335.28-16.85 356.88-16.85ZM357.73-21.65L357.33-19.4 336.13-21.65 357.73-21.65ZM358.53-26.45L358.18-24.2 336.98-26.45 358.53-26.45ZM334.28-7.25L355.43-7.25 355.43-6.25Q355.43-5.4 355.48-5L355.48-5 334.28-7.25ZM357.38-0.15L357.38-0.15 336.18-2.4 355.93-2.4Q356.48-1 357.38-0.15ZM365.13-7L367.63-7Q368.98-7 369.5-7.33 370.03-7.65 370.23-8.9L370.23-8.9 373.38-26.45 381.78-26.45 379.18-11.55Q377.98-4.55 375.3-1.98 372.63 0.6 366.18 0.6L366.18 0.6Q361.03 0.6 358.98-0.93 356.93-2.45 356.93-6.25L356.93-6.25Q356.93-8.35 357.48-11.55L357.48-11.55 360.13-26.45 368.53-26.45 365.13-7ZM396.52-26.45L409.22-26.45Q416.52-26.45 416.52-19.85L416.52-19.85Q416.52-16.85 415.32-13.63 414.12-10.4 411.27-8.8L411.27-8.8 414.12 0 404.77 0 402.87-7.7 401.67-7.7 400.32 0 391.92 0 396.52-26.45ZM407.07-16.05L407.37-17.8Q407.37-17.85 407.42-18.3L407.42-18.3Q407.42-19.15 404.77-19.15L404.77-19.15 403.67-19.15 402.87-14.55 404.47-14.55Q406.77-14.55 407.07-16.05L407.07-16.05ZM390.67-2.4L390.27-0.15 369.07-2.4 390.67-2.4ZM392.37-12.05L391.97-9.8 370.77-12.05 392.37-12.05ZM393.22-16.85L392.82-14.6 371.62-16.85 393.22-16.85ZM394.07-21.65L393.67-19.4 372.47-21.65 394.07-21.65ZM394.87-26.45L394.52-24.2 373.32-26.45 394.87-26.45ZM391.52-7.25L391.12-5 369.92-7.25 391.52-7.25ZM426.77-0.15L405.87-2.4 427.47-2.4 426.77-0.15ZM409.72-21.65L431.27-21.65Q430.97-20.85 430.62-19.4L430.62-19.4 409.72-21.65ZM430.02-15L430.02-15 430.02-14.6 408.82-16.85 430.12-16.85Q430.02-15.65 430.02-15ZM429.07-7.25L428.37-5.05 407.52-7.25 429.07-7.25ZM413.17-26.45L434.72-26.45Q433.37-25.45 432.67-24.35L432.67-24.35 413.17-26.45ZM410.77-12.05L430.47-12.05Q430.92-10.75 431.92-9.8L431.92-9.8 410.77-12.05ZM452.82-25.9L450.42-18.6Q447.02-19.4 444.62-19.4 442.22-19.4 441.07-19.25L441.07-19.25 440.82-17.8 443.32-17.5Q451.37-16.45 451.37-10.85L451.37-10.85Q451.37-10.2 451.07-8.43 450.77-6.65 450.07-5 449.37-3.35 448.3-2.33 447.22-1.3 446.2-0.68 445.17-0.05 443.57 0.2L443.57 0.2Q441.07 0.6 436.9 0.6 432.72 0.6 428.47-0.55L428.47-0.55 430.92-7.95Q434.82-6.85 437.75-6.85 440.67-6.85 441.87-7L441.87-7 442.12-8.6 438.97-8.95Q434.92-9.4 433.22-10.85 431.52-12.3 431.52-15L431.52-15Q431.52-16 431.77-17.5L431.77-17.5Q432.77-22.85 435.37-24.9 437.97-26.95 443.3-26.95 448.62-26.95 452.82-25.9L452.82-25.9ZM482.47-15.55L481.62-10.75 474.17-10.75 473.57-7.35 482.82-7.35 481.52 0 463.87 0 468.47-26.45 486.07-26.45 483.72-18.95 475.57-18.95 474.97-15.55 482.47-15.55ZM462.62-2.4L462.22-0.15 441.02-2.4 462.62-2.4ZM464.32-12.05L463.92-9.8 442.72-12.05 464.32-12.05ZM465.17-16.85L464.77-14.6 443.57-16.85 465.17-16.85ZM466.02-21.65L465.62-19.4 444.42-21.65 466.02-21.65ZM466.82-26.45L466.47-24.2 445.27-26.45 466.82-26.45ZM463.47-7.25L463.07-5 441.87-7.25 463.47-7.25Z" opacity="1" transform="matrix(1,0,0,1,0,0)" fill="#000000" class="wordmark-text-0" data-fill-palette-color="primary" id="text-0"></path></svg></g></svg></g></svg></g></svg></g></svg></g></svg></g></svg></g></svg></g><defs></defs></svg><rect width="395.52" height="247.2" fill="none" stroke="none" visibility="hidden"></rect></g></svg></g></svg>